Patient4_TMGait_0pt4_01_left_09_EMG.mot
version=1
nRows=13
nColumns=33
inDegrees=no
endheader
time	1LAddLong	2LGlutMax	3LGlutMed	4LIliopsoas	5LSemiMemb	6LBicFemLong	7LRecFem	8LVastMed	9LVastLat	10LGasMed	11LTibAnt	12lTibPost	13LPeroneusLong	14LSol	15LExtDigLong	16LFlexDigLong	17RAddLong	18RGlutMax	19RGlutMed	20RIliopsoas	21RSemiMemb	22RBicFemLong	23RRecFem	24RVastMed	25RVastLat	26RGasMed	27RTibAnt	28RTibPost	29RPeroneusLong	30RSol	31RExtDigLong	32RFlexDigLong
11.102	-0.000305	-0.079498	-0.13962	0.002747	-0.029144	0.22156	-0.16602	-0.014496	-0.069122	0.10819	-0.012665	0.22903	-0.1297	-0.25604	0.016479	0.031128	-0.034027	-0.40268	-0.12405	0.056458	0.011749	0.2681	0.26794	-0.055237	0.009308	-0.00885	-0.09491	-0.005035	0.23407	0.049133	-0.001984	0.009766
11.103	-0.004578	-0.17273	-0.1355	0.006256	-0.049286	0.24536	-0.14984	-0.004883	-0.011749	-0.021667	-0.007172	0.05127	-0.093689	-0.16357	0.1944	0.022736	-0.020447	-0.41702	-0.059967	0.038147	0.13367	0.28214	0.28503	-0.068054	0.001068	-0.007019	0.01358	-0.003815	0.042725	0.063934	-0.002594	-0.007629
11.104	0.001068	-0.16983	-0.12985	-0.000763	-0.071106	0.28656	-0.11704	0.000458	-0.016937	-0.10864	-0.010529	-0.02655	-0.15732	-0.078125	0.14008	0.016937	-0.021057	-0.31921	-0.054474	0.035095	0.023804	0.24506	0.30624	-0.13565	-0.010681	0.000763	0.10559	-0.000763	-0.02594	0.056915	-0.000153	-0.011749
11.105	0.006256	-0.15823	0.024567	-0.00473	-0.082397	0.17487	-0.1181	-0.000763	-0.013428	-0.15595	0.006866	0.045166	0.020294	-0.12878	0.013885	-0.06546	-0.010223	-0.28717	-0.16342	0.019531	-0.02594	0.23895	0.31021	-0.099792	-0.037537	0.001221	-0.071411	-0.00473	-0.11322	0.11856	-0.002441	-0.011292
11.106	0.013885	-0.13138	-0.001373	-0.012054	-0.052185	0.1413	-0.078125	-0.001678	-0.024872	-0.13931	-0.011749	0.072632	0.72449	-0.37842	0.043793	-0.000763	0.015411	-0.26764	-0.19455	-0.093384	-0.031128	0.20691	0.30151	-0.10513	-0.012665	0.001221	-0.22629	-0.001526	-0.000916	0.054626	-0.001831	-0.016479
11.107	0.0177	-0.13718	0.075073	-0.000916	-0.012512	0.14725	-0.039215	-0.007019	-0.04425	-0.036926	-0.004425	0.46585	0.10025	-0.42099	0.091858	0.012512	0.020599	-0.27832	-0.30762	-0.13733	-0.029297	0.18372	0.31158	-0.067902	-0.007935	0.00061	-0.21484	-0.005035	0.16449	0.0383	-0.007019	-0.016785
11.108	0.024414	-0.15961	0.016632	0.003967	0.041504	0.05661	-0.065918	0.005798	-0.062256	0.13947	-0.006866	-0.20981	-0.32867	-0.23453	0.13336	-0.023041	0.029602	-0.21011	-0.11887	-0.036926	-0.018005	0.17288	0.32959	-0.069275	0.001678	0.005493	0.027466	-0.004578	-0.012512	-0.059357	-0.003052	-0.01358
11.109	0.026703	-0.15717	0.2359	0.009155	-0.011444	-0.092621	-0.10559	0.002594	-0.062714	0.20371	-0.029602	-0.11108	-0.023499	-0.1973	0.006104	-0.021667	0.035706	-0.13886	-0.16129	0.024109	-0.02243	0.11261	0.30716	-0.10178	-0.013885	0.006256	-0.1181	-0.005035	-0.22995	-0.071259	0.000763	-0.005951
11.11	0.024872	-0.25131	0.168	-0.018921	-0.033112	-0.11307	-0.12985	0.013733	-0.069733	0.14313	-0.000153	-0.23758	-0.10819	0.34729	-0.005951	-0.010681	0.029755	-0.12238	-0.11948	0.13565	-0.009918	0.10986	0.26093	-0.059814	0.002289	0.002136	-0.19028	-0.009308	-0.24414	-0.083771	-0.001068	-0.009308
11.111	0.015717	-0.27908	0.08316	-0.040283	0.002747	-0.39688	-0.15762	0.00473	-0.065308	0.11658	0.02243	-0.21561	0.46722	0.37781	-0.018311	-0.018463	0.024414	-0.11536	-0.22568	0.077667	-0.032654	0.12222	0.27664	-0.048981	-0.002441	-0.000305	-0.041504	-0.005646	-0.13748	-0.13107	-0.000763	-0.014648
11.112	0.016937	-0.27435	-0.007782	0.008698	-0.018005	-0.27771	-0.32028	0.001984	0.03952	0.04364	-0.002899	-0.053558	0.89355	0.11108	0.024567	-0.001984	0.045319	-0.086365	-0.28366	0.024261	-0.046997	0.11078	0.27023	-0.065765	-0.00824	0.002747	0.2861	-0.00351	0.068054	-0.094757	-0.002594	-0.012512
11.113	0.010681	-0.31281	-0.090637	0.02243	-0.047607	0.063324	-0.40848	0.004883	0.18814	-0.090485	-0.021667	-0.04715	-0.43961	-0.006714	0.038452	0.04776	0.035706	0.000916	-0.32196	-0.016479	-0.041962	0.070343	0.2652	-0.052185	0.006714	0.001221	0.37476	-0.008545	0.18539	-0.011444	-0.005188	-0.010986
11.114	-0.00351	-0.28793	-0.041351	0.027161	-0.038452	0.21957	-0.31723	-0.007477	0.32623	-0.028076	-0.00946	-0.061951	-0.48706	0.065308	-0.057983	-0.005188	0.036163	0.071106	-0.17731	-0.023193	-0.030518	0.06012	0.24338	-0.072327	-0.009918	0.003052	0.45364	-0.004425	-0.22995	-0.010529	-0.003357	-0.008392
